HIERARCHY
ROOT Hips
{
 OFFSET 0.000000 0.000000 0.000000
 CHANNELS 6 Xposition Yposition Zposition Yrotation Xrotation Zrotation
 JOINT Chest
 {
  OFFSET 0.000000 10.265206 0.006595
  CHANNELS 3 Yrotation Xrotation Zrotation
  JOINT Chest2
  {
   OFFSET 0.000000 11.389044 -0.011980
   CHANNELS 3 Yrotation Xrotation Zrotation
   JOINT Chest3
   {
    OFFSET 0.000000 10.290982 0.000000
    CHANNELS 3 Yrotation Xrotation Zrotation
    JOINT Chest4
    {
     OFFSET 0.000000 10.290982 0.000000
     CHANNELS 3 Yrotation Xrotation Zrotation
     JOINT Neck
     {
      OFFSET 0.000000 14.367993 0.000000
      CHANNELS 3 Yrotation Xrotation Zrotation
      JOINT Head
      {
       OFFSET 0.000000 9.574020 -0.028490
       CHANNELS 3 Yrotation Xrotation Zrotation
       End Site
       {
        OFFSET 0.000000 18.400023 -0.014881
       }
      }
     }
     JOINT RightCollar
     {
      OFFSET -3.015571 8.009391 0.000000
      CHANNELS 3 Yrotation Xrotation Zrotation
      JOINT RightShoulder
      {
       OFFSET -13.867120 0.000000 0.000000
       CHANNELS 3 Yrotation Xrotation Zrotation
       JOINT RightElbow
       {
        OFFSET -29.171974 0.000000 0.000000
        CHANNELS 3 Yrotation Xrotation Zrotation
        JOINT RightWrist
        {
         OFFSET -24.013854 0.000000 0.006497
         CHANNELS 3 Yrotation Xrotation Zrotation
         End Site
         {
          OFFSET -18.051397 0.000000 0.000000
         }
        }
       }
      }
     }
     JOINT LeftCollar
     {
      OFFSET 3.015571 8.009391 0.000000
      CHANNELS 3 Yrotation Xrotation Zrotation
      JOINT LeftShoulder
      {
       OFFSET 13.867120 0.000000 0.000000
       CHANNELS 3 Yrotation Xrotation Zrotation
       JOINT LeftElbow
       {
        OFFSET 29.171974 0.000000 0.000000
        CHANNELS 3 Yrotation Xrotation Zrotation
        JOINT LeftWrist
        {
         OFFSET 24.013854 0.000000 0.006497
         CHANNELS 3 Yrotation Xrotation Zrotation
         End Site
         {
          OFFSET 18.051397 0.000000 0.000000
         }
        }
       }
      }
     }
    }
   }
  }
 }
 JOINT RightHip
 {
  OFFSET -8.283980 -0.032318 -0.003298
  CHANNELS 3 Yrotation Xrotation Zrotation
  JOINT RightKnee
  {
   OFFSET 0.000000 -43.567000 0.003120
   CHANNELS 3 Yrotation Xrotation Zrotation
   JOINT RightAnkle
   {
    OFFSET 0.000000 -42.556413 0.005276
    CHANNELS 3 Yrotation Xrotation Zrotation
    JOINT RightToe
    {
     OFFSET 0.000000 -7.926623 17.954935
     CHANNELS 3 Yrotation Xrotation Zrotation
     End Site
     {
      OFFSET 0.000000 -1.555762 6.841994
     }
    }
   }
  }
 }
 JOINT LeftHip
 {
  OFFSET 8.283980 -0.032318 -0.003298
  CHANNELS 3 Yrotation Xrotation Zrotation
  JOINT LeftKnee
  {
   OFFSET 0.000000 -43.567000 0.003120
   CHANNELS 3 Yrotation Xrotation Zrotation
   JOINT LeftAnkle
   {
    OFFSET 0.000000 -42.556413 0.005276
    CHANNELS 3 Yrotation Xrotation Zrotation
    JOINT LeftToe
    {
     OFFSET 0.000000 -7.926623 17.954935
     CHANNELS 3 Yrotation Xrotation Zrotation
     End Site
     {
      OFFSET 0.000000 -1.555762 6.841994
     }
    }
   }
  }
 }
}
MOTION
Frames: 11
Frame Time: 0.033333
0.000000 93.892266 0.000000 0.000000 -5.826342 0.000000 0.000000 11.116423 0.000000 0.000000 -5.290081 0.000000 0.000000 0.000000 0.000000 0.000000 0.000000 0.000000 0.000000 12.665069 0.000000 0.000000 0.575450 0.000000 0.000000 0.000000 0.000000 0.000000 0.000000 0.000000 2.337306 0.000000 0.000000 -2.337306 0.000000 0.000000 0.000000 0.000000 0.000000 0.000000 0.000000 0.000000 -2.337306 0.000000 0.000000 2.337306 0.000000 0.000000 0.000000 8.578828 0.000000 0.000000 1.905768 0.000000 0.000000 -4.658254 0.000000 0.000000 0.000000 0.000000 0.000000 8.578828 0.000000 0.000000 1.905768 0.000000 0.000000 -4.658254 0.000000 0.000000 0.000000 0.000000
-165.847892 95.835896 -161.670290 -91.157207 -6.849249 -1.515912 1.319383 2.410748 0.480859 0.819249 1.507593 0.291358 0.654754 1.206411 0.231351 0.490591 0.905057 0.172214 -2.553912 23.599236 0.318152 -2.833291 -0.587732 0.933968 2.460400 1.429872 8.926170 10.591113 -0.988349 72.971464 22.105623 31.074665 3.916222 0.847060 4.987561 -6.308129 0.344007 1.325870 -12.332981 -6.191717 -4.173863 -70.505023 -6.272314 27.083010 2.504260 1.115832 10.972315 3.272544 -9.937302 10.736345 -1.358344 -7.375411 0.078872 -1.254367 9.366901 -4.637773 4.425205 0.048295 0.021538 0.025129 3.152731 10.226994 1.264430 8.110290 0.836109 1.488632 7.514175 -4.376973 -3.389549 -0.040476 -0.003642 -0.086451
-165.926302 95.834912 -161.750277 -91.015756 -6.874852 -1.370044 1.266723 2.381226 0.516789 0.787792 1.490128 0.316236 0.629546 1.192453 0.251338 0.471652 0.894600 0.187268 -2.505273 23.498455 0.291558 -2.773151 -0.711119 0.893816 2.462827 1.484770 8.955063 10.367705 -0.972820 73.251149 20.290354 30.362143 2.890868 0.641943 5.013403 -6.483107 0.357176 1.330986 -12.404104 -6.682389 -4.044460 -70.632149 -5.370108 27.443203 3.064403 1.197751 11.384399 3.487383 -9.861382 10.872556 -1.428157 -7.558672 -0.009111 -1.267490 9.362209 -4.689005 4.376846 0.045537 0.013362 0.032191 3.298194 10.275870 1.202063 7.975447 0.876816 1.492694 7.388254 -4.391539 -3.429862 -0.039726 -0.022940 -0.069958
-166.019702 95.825509 -161.806624 -90.847351 -6.895035 -1.236549 1.222996 2.363756 0.557408 0.761127 1.478406 0.344034 0.608163 1.183093 0.273644 0.455577 0.887593 0.204048 -2.293540 23.352133 0.311669 -2.546681 -0.893669 0.866218 2.421399 1.512039 8.957694 9.884607 -0.843598 73.482411 18.596010 30.215479 2.148949 0.415819 4.879129 -6.495234 0.321614 1.333004 -12.489353 -7.123674 -3.843648 -70.766069 -4.800345 27.968872 3.271504 1.297944 11.722347 3.112607 -9.919924 11.005251 -1.540739 -7.547993 -0.074490 -1.248018 9.291168 -4.778954 4.323933 0.032684 0.019939 0.034119 3.364342 10.316322 1.130398 7.897940 0.939934 1.500295 7.268017 -4.430486 -3.476040 -0.034319 -0.031950 -0.053806
-166.094943 95.820770 -161.852161 -90.638835 -6.907079 -1.109610 1.167185 2.343921 0.599803 0.728919 1.467885 0.368184 0.582354 1.174685 0.293040 0.436187 0.881294 0.218653 -1.818629 23.166220 0.328211 -2.035034 -1.130033 0.773671 2.412170 1.570568 8.960818 9.264851 -0.621735 73.610346 17.115483 30.439047 1.560134 0.261226 5.057845 -6.225827 0.310762 1.358233 -12.590166 -7.229919 -3.673029 -70.871181 -4.705854 28.802937 3.145133 1.385580 11.964846 2.558968 -9.850162 11.144647 -1.578963 -7.674800 -0.170274 -1.287102 9.179821 -4.867350 4.275695 0.033366 0.037175 0.047396 3.374865 10.330204 1.040247 7.788355 1.003029 1.519079 7.201305 -4.450910 -3.522395 -0.038021 -0.037424 -0.038919
-166.167816 95.821591 -161.908970 -90.426610 -6.915611 -1.000734 1.109898 2.340302 0.626084 0.692691 1.466269 0.382209 0.553345 1.173387 0.304335 0.414410 0.880317 0.227181 -1.029347 22.945133 0.352724 -1.188286 -1.410153 0.616954 2.396599 1.628147 8.994661 8.549817 -0.371654 73.704328 15.745844 31.111339 1.086811 0.023613 5.558812 -5.783522 0.345298 1.425027 -12.626678 -6.922814 -3.629482 -71.091533 -4.972862 29.986464 2.862983 1.421556 12.115647 2.178961 -9.687242 11.268058 -1.564272 -7.954110 -0.242955 -1.365525 9.102793 -4.935361 4.265415 0.048710 0.029110 0.048591 3.346697 10.350606 0.953663 7.757327 1.035363 1.565402 7.102525 -4.441120 -3.589042 -0.048100 -0.047272 -0.031022
-166.267275 95.817179 -161.950111 -90.218926 -6.960512 -0.891533 1.060589 2.359044 0.626702 0.662547 1.476452 0.393467 0.529202 1.181528 0.313394 0.396281 0.886418 0.234014 0.022250 22.736301 0.398796 -0.068165 -1.667122 0.423077 2.348778 1.644987 9.021120 7.733180 -0.070392 73.872874 14.383288 31.919462 0.512641 -0.229943 5.945317 -5.406125 0.337815 1.496611 -12.601053 -6.477826 -3.610608 -71.458325 -5.416245 31.032704 2.522966 1.383022 12.120145 2.120148 -9.650391 11.428764 -1.637516 -8.044556 -0.283154 -1.353922 8.996898 -5.015473 4.218088 0.053039 0.007717 0.048752 3.374810 10.431984 0.875719 7.655833 1.051596 1.584951 7.021507 -4.451708 -3.638511 -0.052956 -0.044079 -0.022525
-166.360505 95.814715 -161.972284 -90.028726 -7.014272 -0.800060 1.000101 2.379522 0.647273 0.623021 1.488999 0.405922 0.497550 1.191554 0.323427 0.372518 0.893930 0.241591 1.352817 22.547929 0.378104 1.365025 -1.880114 0.093576 2.349904 1.663843 9.035909 6.908535 0.254621 74.064458 13.062651 32.719118 -0.123668 -0.494573 6.208842 -5.055898 0.438433 1.567418 -12.621705 -6.005903 -3.535888 -71.797419 -6.081364 31.842121 2.040981 1.361643 12.127206 2.155561 -9.605392 11.601146 -1.713429 -8.110233 -0.342838 -1.330701 8.892058 -5.086158 4.188318 0.047094 0.003099 0.043052 3.401138 10.534193 0.816590 7.503427 1.041687 1.571057 6.996837 -4.439164 -3.653823 -0.049320 -0.048564 -0.018493
-166.444871 95.814676 -161.973284 -89.804801 -7.063472 -0.703499 0.971461 2.385872 0.649722 0.602474 1.492679 0.417752 0.481086 1.194496 0.332930 0.360150 0.896135 0.248748 2.602969 22.404187 0.360135 2.714921 -2.018329 -0.214309 2.327887 1.736011 9.057323 5.930391 0.576229 74.214692 11.984468 33.445961 -0.663305 -0.665552 6.406339 -4.887032 0.472632 1.655920 -12.671980 -5.704470 -3.410363 -72.099064 -6.721849 32.329152 1.546058 1.351671 12.105125 2.095714 -9.576737 11.785576 -1.792622 -8.283416 -0.452878 -1.314412 8.863780 -5.106283 4.164477 0.046242 -0.020604 0.044846 3.317698 10.653821 0.693844 7.463412 0.974351 1.606631 6.928583 -4.398566 -3.673951 -0.046673 -0.042331 -0.016855
-166.526788 95.814115 -161.982711 -89.607397 -7.112514 -0.627951 0.949029 2.389760 0.662339 0.587493 1.493624 0.429084 0.469077 1.195253 0.342026 0.351126 0.896703 0.255593 3.591938 22.272458 0.316507 3.795444 -2.133722 -0.489930 2.290576 1.836132 9.047077 5.071040 0.897819 74.370134 11.037129 34.189578 -1.142588 -0.802082 6.358675 -4.953218 0.573983 1.691735 -12.727597 -5.583256 -3.262096 -72.379155 -7.248253 32.881087 1.104804 1.337558 12.024393 1.893714 -9.618365 11.941866 -1.855990 -8.394475 -0.519647 -1.337727 8.857484 -5.155062 4.165709 0.045667 -0.032029 0.044450 3.230433 10.775044 0.619328 7.478172 0.904809 1.594322 6.840532 -4.344906 -3.679100 -0.041647 -0.041806 -0.013202
-166.579467 95.812933 -161.999698 -89.403390 -7.164862 -0.579922 0.957122 2.384112 0.664335 0.590401 1.491399 0.431283 0.471400 1.193477 0.343781 0.352866 0.895374 0.256906 4.246904 22.136434 0.213003 4.532053 -2.259334 -0.753440 2.200499 1.944093 9.007949 4.367411 1.210840 74.601014 10.273008 34.923484 -1.589434 -0.921574 6.317775 -5.255295 0.577033 1.719201 -12.778382 -5.532581 -3.181700 -72.624507 -7.436859 33.416384 1.046006 1.266856 11.494991 1.796885 -9.616973 12.070044 -1.853422 -8.436533 -0.555150 -1.373554 8.742383 -5.191491 4.132851 0.052044 -0.043312 0.052035 3.030396 10.890358 0.558946 7.476935 0.825282 1.558745 6.863519 -4.281370 -3.664718 -0.042763 -0.031943 -0.011995
